<?xml version="1.0" encoding="UTF-8" standalone="no"?>
<svg width="675px" height="675px" viewBox="0 0 675 675" version="1.1" xmlns="http://www.w3.org/2000/svg" xmlns:xlink="http://www.w3.org/1999/xlink" xmlns:sketch="http://www.bohemiancoding.com/sketch/ns">
    <!-- Generator: Sketch 3.3 (11970) - http://www.bohemiancoding.com/sketch -->
    <title>1_crystals</title>
    <desc>Created with Sketch.</desc>
    <defs></defs>
    <g id="Page-1" stroke="none" stroke-width="1" fill="none" fill-rule="evenodd" sketch:type="MSPage">
        <g id="1_crystals" sketch:type="MSArtboardGroup" stroke="#020202" fill="#231F20">
            <g sketch:type="MSLayerGroup" transform="translate(177.500000, 137.000000)" id="Shape">
                <path d="M261.254,318.982 L318.998,318.982 L297.469,275.928 C310.885,252.62 318.566,225.613 318.566,196.849 C318.566,146.724 295.247,101.95 258.895,72.777 L258.895,72.707 L258.807,72.707 C236.361,54.72 208.958,42.679 178.999,39 L159.497,0 L139.997,38.999 C110.036,42.677 82.63,54.717 60.184,72.707 L60.103,72.707 L60.103,72.773 C23.749,101.946 0.43,146.722 0.43,196.849 C0.43,225.617 8.111,252.622 21.527,275.931 L0.529,317.922 L0,318.982 L57.737,318.982 C76.109,334.308 97.977,345.57 121.953,351.394 L159.139,400.89 L159.504,401.376 L197.053,351.388 C221.022,345.566 242.886,334.305 261.254,318.982 L261.254,318.982 Z M198.442,349.543 L221.397,318.982 L258.95,318.982 C241.484,333.227 220.924,343.807 198.442,349.543 L198.442,349.543 Z M61.384,73.622 L122.686,73.622 L61.016,196.955 L61.016,73.918 C61.139,73.82 61.261,73.72 61.384,73.622 L61.384,73.622 Z M124.324,73.622 L159.053,73.622 L61.028,268.779 L61.015,268.762 L61.015,200.23 L124.324,73.622 L124.324,73.622 Z M257.981,73.922 L257.981,196.955 L196.311,73.622 L257.608,73.622 C257.733,73.721 257.856,73.822 257.981,73.922 L257.981,73.922 Z M257.981,200.233 L257.981,268.762 L257.968,268.779 L159.934,73.622 L194.673,73.622 L257.981,200.233 L257.981,200.233 Z M257.815,270.508 L258.525,269.558 L258.802,269.189 L258.801,269.189 L258.894,269.066 L258.894,202.06 L295.801,275.869 C286.579,291.707 274.676,305.795 260.718,317.516 L222.498,317.516 L257.812,270.506 L257.815,270.508 L257.815,270.508 Z M124.781,72.707 L140.954,40.365 C147.036,39.649 153.221,39.268 159.492,39.268 C165.768,39.268 171.957,39.648 178.043,40.365 L194.215,72.706 L124.781,72.706 L124.781,72.707 Z M60.2,269.185 L60.194,269.189 L96.501,317.516 L58.273,317.516 C44.317,305.795 32.415,291.707 23.194,275.871 L60.102,202.057 L60.102,269.057 L60.2,269.185 L60.2,269.185 Z M61.643,269.595 L159.495,74.785 L257.357,269.595 L221.356,317.515 L97.645,317.515 L61.643,269.595 L61.643,269.595 Z M220.254,318.982 L197.042,349.882 C185.004,352.837 172.429,354.413 159.492,354.413 C146.562,354.413 133.996,352.837 121.966,349.888 L98.746,318.982 L220.254,318.982 L220.254,318.982 Z M316.627,317.516 L262.986,317.516 C276.263,306.12 287.638,292.575 296.582,277.429 L316.627,317.516 L316.627,317.516 Z M317.1,196.849 C317.1,225 309.668,251.447 296.676,274.342 L258.895,198.781 L258.895,74.659 C294.388,103.577 317.1,147.607 317.1,196.849 L317.1,196.849 Z M256.46,72.707 L195.855,72.707 L179.786,40.573 C208.455,44.273 234.735,55.708 256.46,72.707 L256.46,72.707 Z M159.497,3.278 L177.261,38.801 C171.426,38.15 165.498,37.803 159.492,37.803 C153.49,37.803 147.567,38.149 141.736,38.799 L159.497,3.278 L159.497,3.278 Z M139.212,40.571 L123.143,72.707 L62.533,72.707 C84.258,55.705 110.539,44.269 139.212,40.571 L139.212,40.571 Z M1.896,196.849 C1.896,147.605 24.608,103.572 60.102,74.654 L60.102,198.781 L22.318,274.345 C9.327,251.447 1.896,225 1.896,196.849 L1.896,196.849 Z M2.37,317.516 L22.414,277.432 C31.355,292.577 42.73,306.122 56.004,317.516 L2.37,317.516 L2.37,317.516 Z M60.042,318.982 L97.604,318.982 L120.566,349.544 C98.077,343.812 77.511,333.229 60.042,318.982 L60.042,318.982 Z M159.504,399.854 L123.355,351.739 C134.968,354.446 147.065,355.882 159.493,355.882 C171.929,355.882 184.033,354.444 195.653,351.734 L159.504,399.854 L159.504,399.854 Z" sketch:type="MSShapeGroup"></path>
            </g>
        </g>
    </g>
</svg>